<?xml version="1.0" standalone="no"?>
<!DOCTYPE svg PUBLIC "-//W3C//DTD SVG 20010904//EN"
 "http://www.w3.org/TR/2001/REC-SVG-20010904/DTD/svg10.dtd">
<svg version="1.0" xmlns="http://www.w3.org/2000/svg"
 width="754.000000pt" height="754.000000pt" viewBox="0 0 754.000000 754.000000"
 preserveAspectRatio="xMidYMid meet">
<metadata>
Created by potrace 1.14, written by Peter Selinger 2001-2017
</metadata>
<g transform="translate(0.000000,754.000000) scale(0.100000,-0.100000)"
fill="#000000" stroke="none">
<path d="M1450 7509 c-30 -5 -62 -11 -70 -12 -28 -6 -135 -39 -145 -46 -5 -4
-32 -16 -60 -26 -27 -10 -54 -21 -60 -25 -5 -4 -26 -17 -46 -28 -72 -40 -83
-47 -108 -69 -14 -13 -28 -23 -32 -23 -12 0 -156 -146 -201 -204 -27 -34 -52
-66 -58 -73 -17 -21 -97 -186 -113 -233 -50 -151 -74 -295 -72 -426 3 -121 10
-167 40 -263 13 -41 22 -78 19 -83 -3 -4 0 -8 5 -8 6 0 11 -5 11 -11 0 -17 72
-163 84 -171 6 -4 7 -8 3 -8 -4 0 -3 -6 2 -12 6 -7 27 -35 47 -62 44 -59 46
-62 104 -125 53 -57 190 -162 202 -155 4 3 8 1 8 -4 0 -5 18 -17 40 -27 29
-13 39 -23 37 -39 -1 -11 -4 -23 -8 -26 -5 -5 -42 -98 -44 -110 0 -3 -10 -36
-22 -75 -27 -90 -62 -230 -67 -275 -3 -20 -7 -47 -10 -60 -15 -61 -19 -162
-19 -385 1 -236 4 -286 23 -375 11 -52 20 -96 25 -125 12 -71 139 -403 164
-428 6 -6 11 -15 11 -20 0 -10 99 -179 110 -187 4 -3 15 -20 25 -37 11 -18 23
-33 27 -33 4 0 8 -5 8 -11 0 -6 6 -17 13 -24 6 -8 30 -35 52 -60 44 -51 120
-127 175 -173 19 -17 49 -42 65 -56 17 -14 36 -26 43 -26 6 0 12 -4 12 -8 0
-5 12 -15 27 -23 15 -8 36 -22 46 -32 10 -10 23 -15 29 -11 6 4 8 3 5 -2 -4
-8 84 -67 103 -69 13 -2 90 -51 94 -60 2 -6 -7 -44 -20 -85 -13 -41 -25 -86
-28 -100 -2 -14 -7 -32 -10 -40 -6 -17 -10 -33 -32 -160 -11 -62 -14 -84 -16
-147 -1 -59 -7 -69 -33 -63 -5 1 -23 4 -40 5 -16 2 -41 6 -55 9 -32 8 -124 8
-175 0 -59 -8 -80 -12 -82 -14 -2 -2 -6 -3 -10 -4 -5 -1 -23 -6 -41 -10 -18
-4 -47 -15 -65 -24 -17 -9 -38 -17 -45 -18 -8 -2 -22 -10 -31 -18 -10 -9 -21
-16 -24 -16 -17 0 -118 -74 -167 -122 -73 -72 -161 -188 -142 -188 4 0 2 -4
-4 -8 -14 -9 -70 -155 -78 -202 -3 -19 -9 -46 -12 -60 -9 -34 -14 -331 -6
-344 3 -6 7 -24 9 -41 4 -44 8 -59 16 -73 5 -6 6 -12 3 -12 -3 0 2 -24 11 -52
8 -29 16 -57 18 -63 1 -5 8 -23 15 -40 7 -16 14 -32 15 -35 0 -3 8 -19 18 -36
9 -17 13 -34 10 -38 -4 -3 -1 -6 5 -6 7 0 12 -5 12 -10 0 -6 12 -29 27 -53 15
-23 27 -44 28 -47 0 -5 46 -72 55 -80 3 -3 18 -23 35 -45 43 -58 157 -170 207
-202 24 -15 45 -30 48 -34 3 -3 32 -21 65 -40 107 -62 228 -113 239 -102 3 4
6 2 6 -4 0 -9 51 -23 140 -40 52 -9 340 -13 340 -4 0 4 10 7 23 6 12 -1 38 2
57 7 19 5 44 10 55 13 46 8 65 14 87 26 13 7 24 12 26 11 7 -6 52 12 52 20 0
5 4 7 9 4 19 -12 267 109 398 194 82 53 81 53 183 33 19 -3 45 -7 58 -7 12 -1
22 -3 22 -6 0 -3 15 -7 33 -8 18 -1 44 -5 57 -8 41 -9 132 -20 255 -30 126
-10 589 -3 683 10 18 3 52 8 75 11 23 3 67 11 97 17 30 7 58 11 61 10 3 0 26
5 52 13 25 7 47 11 50 8 3 -2 14 0 25 6 16 8 24 8 34 -2 20 -20 113 -82 117
-78 2 1 7 -2 10 -7 9 -14 141 -84 141 -75 0 4 4 3 8 -4 4 -6 34 -23 67 -38 33
-15 74 -33 90 -41 40 -18 175 -54 175 -47 0 3 6 1 13 -5 7 -6 22 -11 32 -12
49 -2 75 -5 75 -10 0 -13 334 -18 390 -7 82 18 187 50 252 77 66 28 224 125
255 156 8 8 18 14 22 14 7 0 135 127 168 167 10 12 26 31 36 42 9 12 17 25 17
30 0 4 9 16 20 26 11 10 17 21 15 25 -3 4 2 10 10 14 8 3 15 10 15 15 0 5 19
39 41 77 23 37 43 74 44 83 2 9 4 17 5 19 2 1 3 5 4 10 2 4 7 18 13 32 10 22
24 57 28 70 20 66 29 99 31 119 2 13 6 31 10 40 26 63 21 322 -9 441 -20 79
-50 160 -60 160 -4 0 -5 5 -2 10 3 5 1 10 -5 10 -6 0 -9 3 -6 8 2 4 -9 26 -25
50 -16 23 -29 46 -29 50 0 22 -215 222 -238 222 -6 0 -12 4 -14 8 -6 15 -142
75 -197 87 -12 3 -31 8 -43 12 -30 8 -288 11 -288 3 0 -4 -6 -7 -12 -8 -7 -1
-27 -4 -43 -8 l-30 -6 -3 62 c-2 33 -5 68 -6 78 -2 9 -7 37 -10 62 -9 58 -33
161 -52 225 -19 63 -21 68 -23 77 -1 4 -9 27 -17 50 -17 50 -29 38 139 146 56
37 108 72 115 80 8 7 27 19 43 27 16 9 29 20 29 25 0 6 6 10 14 10 8 0 21 8
28 18 7 10 20 23 30 28 69 38 267 268 370 429 36 57 119 215 123 235 1 3 8 21
17 41 9 20 19 47 23 60 4 13 11 29 15 34 7 9 19 48 26 83 1 8 6 21 10 30 9 21
8 16 24 87 7 33 15 65 16 70 1 6 5 28 9 50 3 22 8 47 10 55 26 90 26 522 1
675 -21 126 -23 140 -25 140 -2 0 -4 9 -6 19 -2 11 -7 31 -11 45 -4 14 -6 30
-5 35 1 4 -4 14 -10 22 -6 8 -9 14 -6 14 4 0 -1 19 -9 43 -9 23 -17 49 -19 57
-2 8 -4 17 -5 20 -1 3 -2 8 -1 13 0 4 -4 7 -9 7 -6 0 -10 8 -10 18 0 10 -7 27
-15 38 -8 12 -12 24 -9 27 3 3 -2 20 -11 37 -16 30 -16 33 2 49 10 9 26 20 36
24 9 3 17 11 17 17 0 6 4 9 8 6 9 -5 75 35 103 63 9 9 29 25 45 36 56 39 192
190 187 207 -2 4 1 8 6 8 21 0 153 293 165 366 2 16 5 29 6 29 12 0 18 327 7
390 -13 77 -19 99 -46 177 -24 71 -54 140 -96 219 -5 11 -13 19 -17 19 -5 0
-8 5 -8 10 0 10 -31 59 -55 86 -5 6 -30 35 -55 65 -63 74 -163 169 -178 169
-6 0 -13 7 -16 16 -3 8 -10 12 -16 9 -5 -3 -10 -2 -10 3 0 15 -179 117 -225
127 -5 1 -32 10 -60 20 -27 9 -57 18 -65 20 -8 2 -35 9 -60 15 -63 16 -380 16
-420 0 -3 -1 -8 -2 -12 -1 -4 0 -29 -8 -55 -18 -27 -10 -50 -19 -53 -18 -3 0
-27 -10 -54 -21 -27 -12 -52 -22 -57 -22 -5 0 -9 -4 -9 -10 0 -5 -4 -9 -8 -7
-16 4 -166 -100 -234 -163 -70 -64 -188 -213 -188 -237 0 -7 -4 -13 -10 -13
-5 0 -10 -6 -10 -13 0 -35 -22 -34 -113 5 -51 22 -137 55 -191 74 -54 19 -105
39 -112 45 -7 6 -18 8 -23 5 -5 -4 -12 -2 -16 4 -4 6 -10 8 -14 6 -4 -3 -40 6
-80 19 -40 14 -76 24 -80 23 -3 0 -8 1 -11 2 -6 2 -26 6 -65 14 -16 3 -43 9
-60 12 -45 9 -76 14 -120 19 -22 3 -53 7 -70 10 -108 17 -294 22 -445 11 -128
-9 -136 -10 -275 -32 -16 -3 -43 -7 -60 -10 -36 -5 -69 -12 -72 -14 -4 -3 -12
-5 -63 -14 -89 -16 -191 -45 -207 -58 -7 -6 -13 -8 -13 -4 0 3 -22 -3 -50 -14
-27 -11 -50 -17 -50 -14 0 4 -7 1 -15 -6 -8 -7 -15 -9 -15 -4 0 5 -4 4 -8 -1
-4 -6 -25 -16 -47 -24 -22 -8 -65 -25 -95 -39 -30 -14 -57 -26 -60 -27 -3 -1
-18 -7 -33 -13 -30 -13 -47 -9 -47 11 0 19 -118 197 -130 197 -5 0 -9 6 -7 13
1 6 -4 11 -11 9 -8 -1 -11 2 -8 6 5 9 -57 71 -126 128 -74 62 -254 154 -300
154 -10 0 -18 4 -18 9 0 8 -19 13 -115 26 -75 11 -290 13 -345 4z"/>
</g>
</svg>
